<svg width="16" height="19" viewBox="0 0 16 19" fill="none" xmlns="http://www.w3.org/2000/svg">
<g clip-path="url(#clip0_26_58)">
<path d="M13.3333 12.2708C12.5 12.2708 11.7 12.1125 10.9533 11.8196C10.72 11.7325 10.46 11.7958 10.2733 12.0096L8.80667 13.7513C6.92 12.6113 5.37333 10.7825 4.41333 8.53417L5.88 6.78458C6.06667 6.57875 6.12 6.27 6.04667 5.99292C5.8 5.10625 5.66667 4.15625 5.66667 3.16667C5.66667 2.73125 5.36667 2.375 5 2.375H2.66667C2.3 2.375 2 2.73125 2 3.16667C2 10.6004 7.07333 16.625 13.3333 16.625C13.7 16.625 14 16.2688 14 15.8333V13.0625C14 12.6271 13.7 12.2708 13.3333 12.2708ZM12.6667 9.5H14C14 5.56542 11.3133 2.375 8 2.375V3.95833C10.58 3.95833 12.6667 6.43625 12.6667 9.5ZM10 9.5H11.3333C11.3333 7.315 9.84 5.54167 8 5.54167V7.125C9.10667 7.125 10 8.18583 10 9.5Z" fill="black"/>
</g>
<defs>
<clipPath id="clip0_26_58">
<rect width="16" height="19" fill="white"/>
</clipPath>
</defs>
</svg>
